<svg xmlns="http://www.w3.org/2000/svg">
    <symbol id="icon-menu" viewBox="0 0 18 14" preserveAspectRatio="xMinYMid">
        <rect x="0" y="0" width="18" height="2"></rect>
        <rect x="0" y="6" width="18" height="2"></rect>
        <rect x="0" y="12" width="18" height="2"></rect>
    </symbol>
    <symbol id="icon-close" viewBox="0 0 18 18" preserveAspectRatio="xMinYMid">
      <rect transform="translate(9.000000, 9.000000) rotate(-315.000000) translate(-9.000000, -9.000000) " x="-1.71428571" y="7.71428571" width="21.4285714" height="2.57142857"></rect>
      <rect transform="translate(9.000000, 9.000000) rotate(-225.000000) translate(-9.000000, -9.000000) " x="-1.71428571" y="7.71428571" width="21.4285714" height="2.57142857"></rect>
    </symbol>
    <symbol id="twitter-logo-blue" viewBox="0 0 400 400" preserveAspectRatio="xMinYMid">
      <path d="M153.62,301.59c94.34,0,145.94-78.16,145.94-145.94,0-2.22,0-4.43-.15-6.63A104.36,104.36,0,0,0,325,122.47a102.38,102.38,0,0,1-29.46,8.07,51.47,51.47,0,0,0,22.55-28.37,102.79,102.79,0,0,1-32.57,12.45,51.34,51.34,0,0,0-87.41,46.78A145.62,145.62,0,0,1,92.4,107.81a51.33,51.33,0,0,0,15.88,68.47A50.91,50.91,0,0,1,85,169.86c0,.21,0,.43,0,.65a51.31,51.31,0,0,0,41.15,50.28,51.21,51.21,0,0,1-23.16.88,51.35,51.35,0,0,0,47.92,35.62,102.92,102.92,0,0,1-63.7,22A104.41,104.41,0,0,1,75,278.55a145.21,145.21,0,0,0,78.62,23"/>
    </symbol>
    <symbol id="github-logo" viewBox="0 0 400 400">
      <path d="M200,63.8A139.66,139.66,0,0,0,155.86,336c7,1.28,9.53-3,9.53-6.73,0-3.32-.12-12.1-.19-23.75-38.84,8.44-47-18.72-47-18.72-6.35-16.13-15.5-20.43-15.5-20.43-12.68-8.66,1-8.49,1-8.49,14,1,21.39,14.39,21.39,14.39,12.46,21.34,32.68,15.18,40.64,11.6,1.27-9,4.88-15.18,8.87-18.67-31-3.52-63.61-15.5-63.61-69a54,54,0,0,1,14.37-37.47c-1.44-3.53-6.23-17.73,1.37-37,0,0,11.72-3.75,38.4,14.32A132.36,132.36,0,0,1,235,136c26.66-18.07,38.36-14.32,38.36-14.32,7.62,19.23,2.83,33.42,1.39,37a53.89,53.89,0,0,1,14.35,37.47c0,53.65-32.65,65.45-63.76,68.91,5,4.31,9.48,12.83,9.48,25.86,0,18.67-.17,33.73-.17,38.31,0,3.73,2.52,8.08,9.6,6.71A139.67,139.67,0,0,0,200,63.8Z" />
    </symbol>
</svg>
