<svg xmlns="http://www.w3.org/2000/svg">
    <symbol id="icon-menu" viewBox="0 0 18 14" preserveAspectRatio="xMinYMid">
        <rect x="0" y="0" width="18" height="2"></rect>
        <rect x="0" y="6" width="18" height="2"></rect>
        <rect x="0" y="12" width="18" height="2"></rect>
    </symbol>
    <symbol id="icon-close" viewBox="0 0 18 18" preserveAspectRatio="xMinYMid">
      <rect transform="translate(9.000000, 9.000000) rotate(-315.000000) translate(-9.000000, -9.000000) " x="-1.71428571" y="7.71428571" width="21.4285714" height="2.57142857"></rect>
      <rect transform="translate(9.000000, 9.000000) rotate(-225.000000) translate(-9.000000, -9.000000) " x="-1.71428571" y="7.71428571" width="21.4285714" height="2.57142857"></rect>
    </symbol>
    <symbol id="twitter-logo-blue" viewBox="0 0 400 400">
      <path d="M153.62,301.59c94.34,0,145.94-78.16,145.94-145.94,0-2.22,0-4.43-.15-6.63A104.36,104.36,0,0,0,325,122.47a102.38,102.38,0,0,1-29.46,8.07,51.47,51.47,0,0,0,22.55-28.37,102.79,102.79,0,0,1-32.57,12.45,51.34,51.34,0,0,0-87.41,46.78A145.62,145.62,0,0,1,92.4,107.81a51.33,51.33,0,0,0,15.88,68.47A50.91,50.91,0,0,1,85,169.86c0,.21,0,.43,0,.65a51.31,51.31,0,0,0,41.15,50.28,51.21,51.21,0,0,1-23.16.88,51.35,51.35,0,0,0,47.92,35.62,102.92,102.92,0,0,1-63.7,22A104.41,104.41,0,0,1,75,278.55a145.21,145.21,0,0,0,78.62,23"/>
    </symbol>
    <symbol id="github-logo" viewBox="0 0 400 400">
      <path d="M200,63.8A139.66,139.66,0,0,0,155.86,336c7,1.28,9.53-3,9.53-6.73,0-3.32-.12-12.1-.19-23.75-38.84,8.44-47-18.72-47-18.72-6.35-16.13-15.5-20.43-15.5-20.43-12.68-8.66,1-8.49,1-8.49,14,1,21.39,14.39,21.39,14.39,12.46,21.34,32.68,15.18,40.64,11.6,1.27-9,4.88-15.18,8.87-18.67-31-3.52-63.61-15.5-63.61-69a54,54,0,0,1,14.37-37.47c-1.44-3.53-6.23-17.73,1.37-37,0,0,11.72-3.75,38.4,14.32A132.36,132.36,0,0,1,235,136c26.66-18.07,38.36-14.32,38.36-14.32,7.62,19.23,2.83,33.42,1.39,37a53.89,53.89,0,0,1,14.35,37.47c0,53.65-32.65,65.45-63.76,68.91,5,4.31,9.48,12.83,9.48,25.86,0,18.67-.17,33.73-.17,38.31,0,3.73,2.52,8.08,9.6,6.71A139.67,139.67,0,0,0,200,63.8Z" />
    </symbol>
    <symbol id="icon-home" viewBox="0 0 400 400">
      <path d="M329.69,182.24a5.79,5.79,0,0,0-2-4.35L203.59,71.24a5.81,5.81,0,0,0-7.58,0l-54.52,46.85V88.93a5.81,5.81,0,0,0-5.81-5.81H110.11a5.81,5.81,0,0,0-5.81,5.81v61.13L72,177.88a5.77,5.77,0,0,0-2,4.41v30.52a5.9,5.9,0,0,0,3.53,5.49,5.7,5.7,0,0,0,2.21.46,5.78,5.78,0,0,0,3.78-1.41L95,204V304a26.15,26.15,0,0,0,26.15,26.15h45.46a5.7,5.7,0,0,1-.12-1.16V248.79a11.62,11.62,0,0,1,11.63-11.63h38.94a11.63,11.63,0,0,1,11.63,11.63V329a6.07,6.07,0,0,1-.12,1.16h50.69A26.16,26.16,0,0,0,305.41,304V204.15l14.86,12.78a6,6,0,0,0,5.42,1.31,5.8,5.8,0,0,0,4.31-5.67l-.31-30.34Z"/>
    </symbol>
    <symbol id="icon-work" viewBox="0 0 400 400">
      <path d="M256.51,158.32a11.09,11.09,0,0,0-17.6,0l-52.34,66.23a2.76,2.76,0,0,1-4.17.23l-20.61-22.46a11.78,11.78,0,0,0-17.37,0l-23.16,25.24a13.77,13.77,0,0,0-3.71,9.26v40.53a5.64,5.64,0,0,0,5.56,5.56H277.58a5.64,5.64,0,0,0,5.56-5.56V196.53a13.36,13.36,0,0,0-3-8.57Z"/>
      <path d="M280.59,90H119.41A29.45,29.45,0,0,0,90,119.41V280.59A29.45,29.45,0,0,0,119.41,310H280.59A29.45,29.45,0,0,0,310,280.59V119.41A29.45,29.45,0,0,0,280.59,90Zm13,190.59a13,13,0,0,1-13,13H119.41a13,13,0,0,1-13-13V119.41a13,13,0,0,1,13-13H280.59a13,13,0,0,1,13,13Z"/>
      <circle cx="146.74" cy="146.74" r="18.53"/>
    </symbol>
    <symbol id="icon-writing" viewBox="0 0 400 400">
      <path d="M284,80H116a16,16,0,0,0-16,16V304a16,16,0,0,0,16,16H284a16,16,0,0,0,16-16V96A16,16,0,0,0,284,80ZM119.86,113.8a4,4,0,0,1,4-4h80a4,4,0,0,1,4,4v12a4,4,0,0,1-4,4h-80a4,4,0,0,1-4-4Zm120,172.6a4,4,0,0,1-4,4h-112a4,4,0,0,1-4-4v-12a4,4,0,0,1,4-4h112a4,4,0,0,1,4,4Zm40-40.2a4,4,0,0,1-4,4h-152a4,4,0,0,1-4-4v-12a4,4,0,0,1,4-4h152a4,4,0,0,1,4,4Zm0-40.2a4,4,0,0,1-4,4h-152a4,4,0,0,1-4-4V194a4,4,0,0,1,4-4h152a4,4,0,0,1,4,4Zm0-40.2a4,4,0,0,1-4,4h-152a4,4,0,0,1-4-4v-12a4,4,0,0,1,4-4h152a4,4,0,0,1,4,4Z"/>
    </symbol>
    <symbol id="icon-about" viewBox="0 0 400 400">
      <path d="M200,62A140,140,0,1,0,340,202,140,140,0,0,0,200,62Zm85.68,225.84a24.89,24.89,0,0,0-11-8.06c-18.67-6.22-40.44-6.22-46.67-15.56a26.51,26.51,0,0,1-5.13-15.15c18.67-10.17,33.1-32.6,35.81-58.71a77.78,77.78,0,0,0-1-23.36c-5-35.12-28.19-55.22-56.28-55.22h-2.74c-28,0-51.3,20.1-56.28,55.19a77.78,77.78,0,0,0-1,23.36c2.71,26.1,17.24,48.56,35.81,58.71A26.51,26.51,0,0,1,172,264.22c-6.22,9.33-28,9.33-46.67,15.56a24.89,24.89,0,0,0-11,8.06,121.33,121.33,0,1,1,171.59-.23Z"/>
    </symbol>
</svg>
