<svg width="24" height="24" viewBox="0 0 24 24" fill="none" xmlns="http://www.w3.org/2000/svg">
<path d="M11 12.25C11.6517 13.1212 12.6497 13.6665 13.735 13.7442C14.8203 13.8219 15.8858 13.4245 16.655 12.655L18.905 10.405C20.3261 8.93355 20.3058 6.59466 18.8593 5.14816C17.4128 3.70165 15.0739 3.68133 13.6025 5.10247L12.3125 6.38497" stroke="#2A91F7" stroke-width="2" stroke-linecap="round" stroke-linejoin="round"/>
<path d="M14 10.7501C13.3483 9.87879 12.3503 9.33353 11.265 9.25581C10.1798 9.17808 9.11425 9.57555 8.34503 10.3451L6.09503 12.5951C4.67388 14.0665 4.69421 16.4054 6.14071 17.8519C7.58721 19.2984 9.92611 19.3187 11.3975 17.8976L12.68 16.6151" stroke="#2A91F7" stroke-width="2" stroke-linecap="round" stroke-linejoin="round"/>
</svg>
