<svg width="17" height="17" viewBox="0 0 17 17" fill="none" xmlns="http://www.w3.org/2000/svg">
<path d="M7 9.24998C7.65172 10.1212 8.64972 10.6665 9.73499 10.7442C10.8203 10.8219 11.8858 10.4245 12.655 9.65497L14.905 7.40497C16.3261 5.93355 16.3058 3.59466 14.8593 2.14816C13.4128 0.701653 11.0739 0.681329 9.6025 2.10247L8.3125 3.38497" stroke="#2A91F7" stroke-width="2" stroke-linecap="round" stroke-linejoin="round"/>
<path d="M10 7.75006C9.34831 6.87879 8.35031 6.33353 7.26504 6.25581C6.17977 6.17808 5.11425 6.57555 4.34503 7.34506L2.09503 9.59506C0.673883 11.0665 0.694207 13.4054 2.14071 14.8519C3.58721 16.2984 5.92611 16.3187 7.39753 14.8976L8.68003 13.6151" stroke="#2A91F7" stroke-width="2" stroke-linecap="round" stroke-linejoin="round"/>
</svg>
